<svg width="537" height="537" viewBox="0 0 537 537" fill="none" xmlns="http://www.w3.org/2000/svg">
<path d="M189.857 78.6414L347.14 78.6414L458.356 189.857L458.356 347.14L347.14 458.356L189.857 458.356L78.6415 347.14L78.6415 189.857L189.857 78.6414Z" fill="#BD2E3A"/>
<path d="M201.06 111.056L331.172 111.056L423.175 203.06L423.175 333.172L331.172 425.175L201.06 425.175L109.056 333.172L109.056 203.06L201.06 111.056Z" fill="white"/>
<path d="M333.801 323.601L322.8 323.601L322.8 255.4C322.8 254.186 321.817 253.2 320.601 253.2L307.4 253.2C306.184 253.2 305.201 254.186 305.201 255.4L305.201 323.601L300.8 323.601L300.8 286.201C300.8 284.986 299.817 284.001 298.601 284.001L285.583 284.001C284.366 284.001 283.383 284.986 283.383 286.201L283.383 323.601L278.8 323.601L278.8 273.001C278.8 271.786 277.817 270.801 276.601 270.801L263.4 270.801C262.184 270.801 261.201 271.786 261.201 273.001L261.201 323.601L256.8 323.601L256.8 281.801C256.8 280.586 255.817 279.601 254.6 279.601L241.4 279.601C240.184 279.601 239.2 280.586 239.2 281.801L239.2 323.601L234.8 323.601L234.8 299.4C234.8 298.186 233.817 297.2 232.6 297.2L219.4 297.2C218.184 297.2 217.2 298.186 217.2 299.4L217.2 323.601L206.2 323.601C204.983 323.601 204 324.586 204 325.801C204 327.015 204.983 328.001 206.2 328.001L219.4 328.001C220.617 328.001 221.6 327.015 221.6 325.801L221.6 301.601L230.4 301.601L230.4 325.801C230.4 327.015 231.383 328.001 232.6 328.001L241.4 328.001C242.617 328.001 243.6 327.015 243.6 325.801L243.6 284L252.4 284L252.4 325.801C252.4 327.015 253.383 328 254.6 328L263.4 328C264.617 328 265.6 327.015 265.6 325.801L265.6 275.2L274.4 275.2L274.4 325.801C274.4 327.015 275.383 328.001 276.6 328.001L285.583 328.001C286.799 328.001 287.783 327.015 287.783 325.801L287.783 288.401L296.4 288.401L296.4 325.801C296.4 327.015 297.384 328.001 298.6 328.001L307.4 328.001C308.617 328.001 309.6 327.015 309.6 325.801L309.6 257.6L318.4 257.6L318.4 325.801C318.4 327.015 319.383 328 320.6 328L333.8 328C335.017 328 336 327.015 336 325.801C336 324.586 335.017 323.601 333.801 323.601Z" fill="black"/>
<path d="M212.8 279.6C217.653 279.6 221.6 275.654 221.6 270.8C221.6 269.762 221.387 268.781 221.057 267.855L264.278 224.633C265.822 225.964 267.807 226.8 270 226.8C271.633 226.8 273.142 226.325 274.453 225.549L284.452 235.548C283.677 236.859 283.2 238.368 283.2 240C283.2 244.854 287.147 248.8 292 248.8C296.853 248.8 300.8 244.853 300.8 240C300.8 238.372 300.325 236.868 299.555 235.558L322.756 212.353C324.068 213.127 325.574 213.6 327.2 213.6C332.054 213.6 336 209.653 336 204.8C336.001 199.947 332.054 196 327.201 196C322.348 196 318.401 199.947 318.401 204.8C318.401 206.428 318.876 207.933 319.646 209.242L296.443 232.448C295.134 231.673 293.626 231.2 292.001 231.2C290.379 231.2 288.877 231.671 287.57 232.441L277.558 222.431C278.328 221.124 278.801 219.622 278.801 218C278.801 213.147 274.854 209.2 270.001 209.2C265.147 209.2 261.201 213.147 261.201 218C261.201 219.039 261.414 220.02 261.744 220.946L218.523 264.167C216.978 262.836 214.994 262 212.8 262C207.947 262 204 265.947 204 270.8C204 275.653 207.947 279.6 212.8 279.6ZM327.201 200.4C329.625 200.4 331.601 202.373 331.601 204.8C331.601 207.227 329.625 209.2 327.201 209.2C326 209.2 324.913 208.714 324.119 207.933C324.11 207.924 324.107 207.911 324.099 207.902C324.09 207.894 324.077 207.891 324.068 207.883C323.287 207.088 322.801 206.002 322.801 204.8C322.801 202.373 324.774 200.4 327.201 200.4ZM292 235.6C294.425 235.6 296.401 237.573 296.401 240C296.401 242.427 294.425 244.4 292 244.4C289.574 244.4 287.6 242.427 287.6 240C287.601 237.573 289.574 235.6 292 235.6ZM270 213.6C272.427 213.6 274.401 215.573 274.401 218C274.401 220.427 272.427 222.4 270 222.4C267.574 222.4 265.6 220.427 265.6 218C265.6 215.573 267.574 213.6 270 213.6ZM212.8 266.4C215.225 266.4 217.2 268.374 217.2 270.8C217.2 273.227 215.225 275.201 212.8 275.201C210.374 275.201 208.4 273.227 208.4 270.8C208.4 268.374 210.374 266.4 212.8 266.4Z" fill="black"/>
<path d="M130.851 258.692C135.351 250.807 146.833 246.487 152.197 246.188C149.989 243.862 147.025 242.387 142.737 240.981C138.449 239.575 131.606 239.45 126.587 242.147C120.859 245.727 116.254 254.107 118.647 260.465C119.496 262.719 121.571 265.002 123.524 266.452C125.433 267.872 127.189 269.495 129.096 270.917C128.428 266.768 128.968 262.428 130.851 258.692Z" fill="black"/>
<path d="M143.837 261.661C150.277 255.817 162.493 252.234 170.246 252.639C170.147 252.502 164.661 248.566 154.593 247.517C149.406 247.517 136.731 252.28 133.198 258.424C133.198 258.424 135.838 259.559 138.384 260.346C140.563 261.019 143.257 261.956 143.837 261.661Z" fill="black"/>
<path d="M134.168 278.167C132.968 277.516 131.915 276.686 131.021 275.713C130.959 276.292 130.901 276.872 130.798 277.449C130.386 279.754 128.492 280.611 130.31 282.599C132.073 284.524 133.589 287.208 134.474 289.612C135.319 291.906 137.136 291.539 139.434 292.083C140.066 292.233 140.892 292.533 141.751 292.762C141.457 289.392 141.162 286.02 140.866 282.649C140.618 279.821 136.078 279.204 134.168 278.167Z" fill="black"/>
<path d="M178.974 260.575C177.633 258.223 175.733 256.259 173.333 254.908C172.903 254.665 172.426 254.543 171.936 254.468C162.823 254.42 152.257 256.359 145.903 263.102C145.111 263.941 143.746 264.303 142.631 263.956C138.938 262.817 135.828 261.855 132.139 260.716C130.293 264.593 130.489 269.343 131.648 273.46C131.65 273.471 131.638 273.48 131.638 273.49C133.562 276.641 136.562 277.063 139.702 278.961C140.954 279.72 142.627 280.603 142.764 282.156C143.089 285.865 143.413 289.573 143.739 293.284C145.565 295.208 148.179 295.727 150.741 294.879C152.37 294.337 154.684 293.737 155.629 292.148C156.5 289.398 157.725 285.613 158.525 283.062C158.733 282.408 159.537 284.872 158.577 288.597C157.919 291.156 158.117 290.149 157.501 292.038C160.132 292.012 162.745 290.741 164.067 288.566C164.923 285.876 166.044 282.402 166.793 280.018C167 279.361 167.805 281.829 166.845 285.55C166.215 287.997 166.375 287.161 165.854 288.724C168.266 288.819 170.49 287.179 171.658 285.046C171.689 285.044 172.83 283.411 173.878 278.371C174.083 277.715 174.888 280.181 173.928 283.904C173.838 284.253 173.766 284.536 173.705 284.768C176.144 284.222 177.509 282.869 179.142 279.972C180.818 276.998 182.062 273.679 181.998 270.284C181.925 266.87 180.656 263.526 178.974 260.575Z" fill="black"/>
<path d="M402.149 258.692C397.649 250.807 386.167 246.487 380.803 246.188C383.011 243.862 385.975 242.386 390.263 240.981C394.551 239.575 401.394 239.45 406.413 242.147C412.141 245.727 416.746 254.107 414.353 260.465C413.504 262.719 411.429 265.002 409.476 266.452C407.567 267.872 405.811 269.495 403.904 270.917C404.572 266.768 404.032 262.428 402.149 258.692Z" fill="black"/>
<path d="M389.163 261.661C382.723 255.817 370.507 252.234 362.754 252.639C362.853 252.502 368.339 248.566 378.407 247.517C383.594 247.517 396.269 252.28 399.802 258.424C399.802 258.424 397.162 259.559 394.616 260.346C392.437 261.019 389.743 261.956 389.163 261.661Z" fill="black"/>
<path d="M398.832 278.167C400.032 277.516 401.085 276.686 401.979 275.713C402.041 276.292 402.099 276.871 402.202 277.449C402.614 279.754 404.508 280.611 402.69 282.599C400.927 284.524 399.411 287.208 398.526 289.612C397.681 291.906 395.864 291.539 393.566 292.083C392.934 292.233 392.108 292.533 391.249 292.762C391.543 289.392 391.838 286.02 392.135 282.649C392.382 279.821 396.922 279.204 398.832 278.167Z" fill="black"/>
<path d="M354.026 260.575C355.367 258.223 357.267 256.259 359.667 254.907C360.097 254.665 360.574 254.543 361.064 254.468C370.178 254.42 380.743 256.359 387.097 263.102C387.889 263.941 389.254 264.302 390.369 263.956C394.062 262.817 397.172 261.855 400.861 260.716C402.707 264.593 402.511 269.343 401.352 273.46C401.35 273.471 401.362 273.48 401.362 273.49C399.438 276.641 396.438 277.063 393.298 278.961C392.046 279.72 390.373 280.603 390.236 282.156C389.911 285.865 389.587 289.573 389.261 293.284C387.436 295.208 384.821 295.726 382.259 294.879C380.63 294.337 378.316 293.737 377.371 292.148C376.5 289.397 375.275 285.613 374.475 283.062C374.267 282.408 373.463 284.872 374.423 288.597C375.081 291.156 374.884 290.149 375.499 292.038C372.868 292.012 370.255 290.741 368.933 288.566C368.077 285.876 366.956 282.402 366.207 280.017C366 279.361 365.195 281.829 366.155 285.55C366.785 287.997 366.625 287.161 367.146 288.724C364.734 288.819 362.51 287.179 361.342 285.046C361.311 285.044 360.17 283.411 359.122 278.371C358.917 277.715 358.112 280.181 359.072 283.904C359.162 284.253 359.234 284.536 359.295 284.768C356.856 284.222 355.491 282.869 353.858 279.972C352.182 276.998 350.938 273.679 351.002 270.284C351.075 266.87 352.344 263.526 354.026 260.575Z" fill="black"/>
<path d="M202.813 409L202.813 354L219.563 354L224.188 387.531L228.781 354L245.688 354L245.688 409L235.625 409L235.625 369.375L229.313 409L219.438 409L212.75 369.375L212.75 409L202.813 409ZM249.063 409L254.375 354L273.031 354L278.25 409L267.844 409L267.063 400.125L260.438 400.125L259.75 409L249.063 409ZM261.219 391.344L266.219 391.344L263.813 363.375L263.313 363.375L261.219 391.344ZM285.531 409L285.531 364.563L279 364.563L279 354L303.063 354L303.063 364.563L296.531 364.563L296.531 409L285.531 409ZM306.125 409L306.125 354L317.063 354L317.063 373.656L322.25 373.656L322.25 354L333.188 354L333.188 409L322.25 409L322.25 384.063L317.063 384.063L317.063 409L306.125 409Z" fill="black"/>
<path d="M206.656 181L206.656 126L223.406 126L228.031 159.531L232.625 126L249.531 126L249.531 181L239.469 181L239.469 141.375L233.156 181L223.281 181L216.594 141.375L216.594 181L206.656 181ZM254.406 181L254.406 126L271.156 126L275.781 159.531L280.375 126L297.281 126L297.281 181L287.219 181L287.219 141.375L280.906 181L271.031 181L264.344 141.375L264.344 181L254.406 181ZM300.656 181L305.969 126L324.625 126L329.844 181L319.437 181L318.656 172.125L312.031 172.125L311.344 181L300.656 181ZM312.812 163.344L317.812 163.344L315.406 135.375L314.906 135.375L312.812 163.344Z" fill="black"/>
</svg>
